# xmcd
#
# Track frame offsets: 
#        150
#        22549
#        34423
#        52541
#        64001
#        86718
#        97163
#        114001
#        127302
#        143408
#        174572
#        183079
#
# Disc length: 2823 seconds
#
# Revision: 1
# Processed by: cddbd v1.5.2PL0 Copyright (c) Steve Scherf et al.
# Submitted via: ExactAudioCopy v0.99pb5
#
DISCID=900b050c
DTITLE=The Guess Who - Rockin'
DYEAR=1900
DGENRE=
TTITLE0=Heartbroken Bopper
TTITLE1=Get Your Ribbons On
TTITLE2=Smoke Big Factory
TTITLE3=Arrivederci Girl
TTITLE4=Guns, Guns, Guns
TTITLE5=Running Bear
TTITLE6=Back To The City
TTITLE7=Your Nashville Sneakers
TTITLE8=Herbert's A Loser
TTITLE9=Hi Rockers!
TTITLE10=Sea Of Love (Bonus Track - Previously Unreleased)
TTITLE11=Lost Sheep (Bonus Track - Previously Unreleased)
EXTD=2010 remaster with bonus tracks
EXTT0=
EXTT1=
EXTT2=
EXTT3=
EXTT4=
EXTT5=
EXTT6=
EXTT7=
EXTT8=
EXTT9=Sea of love, Heaven only moved once yesterday, Don't you want me
EXTT10=
EXTT11=
PLAYORDER=
